<svg width="204" height="204" viewBox="0 0 204 204" fill="none" xmlns="http://www.w3.org/2000/svg">
<g clip-path="url(#clip0_293_405)">
<path d="M102 6.375C154.728 6.375 197.625 49.2724 197.625 102C197.625 154.728 154.728 197.625 102 197.625C49.2724 197.625 6.375 154.728 6.375 102C6.375 49.2724 49.2724 6.375 102 6.375ZM102 0C45.6673 0 0 45.6673 0 102C0 158.333 45.6673 204 102 204C158.333 204 204 158.333 204 102C204 45.6673 158.333 0 102 0Z" fill="#F38067"/>
<path d="M43.0346 80.6437C45.8759 80.6437 48.1793 78.3404 48.1793 75.4991C48.1793 72.6578 45.8759 70.3545 43.0346 70.3545C40.1933 70.3545 37.89 72.6578 37.89 75.4991C37.89 78.3404 40.1933 80.6437 43.0346 80.6437Z" fill="#F38067"/>
<path d="M48.7784 82.7021H37.2907C33.2394 82.7021 29.9435 85.998 29.9435 90.0493V104.457C29.9435 105.933 31.1388 107.128 32.6146 107.128C34.0904 107.128 35.2857 105.933 35.2857 104.457V91.5347H36.889V103.717C36.889 103.724 36.8859 103.73 36.8859 103.733V130.974C36.8859 132.449 38.0812 133.645 39.557 133.645C41.0328 133.645 42.2281 132.449 42.2281 130.974V109.06H43.8314V130.974C43.8314 132.449 45.0267 133.645 46.5025 133.645C47.9784 133.645 49.1737 132.449 49.1737 130.974V109.06V103.733V91.5347H50.777V104.457C50.777 105.933 51.9723 107.128 53.4481 107.128C54.9239 107.128 56.1192 105.933 56.1192 104.457V90.0493C56.1256 85.998 52.8297 82.7021 48.7784 82.7021Z" fill="#F38067"/>
<path d="M72.5001 80.6437C75.3414 80.6437 77.6447 78.3404 77.6447 75.4991C77.6447 72.6578 75.3414 70.3545 72.5001 70.3545C69.6588 70.3545 67.3555 72.6578 67.3555 75.4991C67.3555 78.3404 69.6588 80.6437 72.5001 80.6437Z" fill="#758AB8"/>
<path d="M78.2439 82.7021H66.7561C62.7048 82.7021 59.4089 85.998 59.4089 90.0493V104.457C59.4089 105.933 60.6042 107.128 62.0801 107.128C63.5559 107.128 64.7512 105.933 64.7512 104.457V91.5347H66.3545V103.717C66.3545 103.724 66.3513 103.73 66.3513 103.733V130.974C66.3513 132.449 67.5466 133.645 69.0224 133.645C70.4982 133.645 71.6936 132.449 71.6936 130.974V109.06H73.2969V130.974C73.2969 132.449 74.4922 133.645 75.968 133.645C77.4438 133.645 78.6391 132.449 78.6391 130.974V109.06V103.733V91.5347H80.2424V104.457C80.2424 105.933 81.4377 107.128 82.9136 107.128C84.3894 107.128 85.5847 105.933 85.5847 104.457V90.0493C85.5911 85.998 82.2952 82.7021 78.2439 82.7021Z" fill="#758AB8"/>
<path d="M101.984 80.6437C104.826 80.6437 107.129 78.3404 107.129 75.4991C107.129 72.6578 104.826 70.3545 101.984 70.3545C99.1432 70.3545 96.8398 72.6578 96.8398 75.4991C96.8398 78.3404 99.1432 80.6437 101.984 80.6437Z" fill="#758AB8"/>
<path d="M107.728 82.7021H96.2405C92.1892 82.7021 88.8933 85.998 88.8933 90.0493V104.457C88.8933 105.933 90.0886 107.128 91.5644 107.128C93.0402 107.128 94.2356 105.933 94.2356 104.457V91.5347H95.8389V103.717C95.8389 103.724 95.8357 103.73 95.8357 103.733V130.974C95.8357 132.449 97.031 133.645 98.5068 133.645C99.9826 133.645 101.178 132.449 101.178 130.974V109.06H102.781V130.974C102.781 132.449 103.977 133.645 105.452 133.645C106.928 133.645 108.124 132.449 108.124 130.974V109.06V103.733V91.5347H109.727V104.457C109.727 105.933 110.922 107.128 112.398 107.128C113.874 107.128 115.069 105.933 115.069 104.457V90.0493C115.075 85.998 111.78 82.7021 107.728 82.7021Z" fill="#758AB8"/>
<path d="M131.453 80.6437C134.294 80.6437 136.597 78.3404 136.597 75.4991C136.597 72.6578 134.294 70.3545 131.453 70.3545C128.611 70.3545 126.308 72.6578 126.308 75.4991C126.308 78.3404 128.611 80.6437 131.453 80.6437Z" fill="#758AB8"/>
<path d="M137.213 82.7021H125.725C121.674 82.7021 118.378 85.998 118.378 90.0493V104.457C118.378 105.933 119.573 107.128 121.049 107.128C122.525 107.128 123.72 105.933 123.72 104.457V91.5347H125.323V103.717C125.323 103.724 125.32 103.73 125.32 103.733V130.974C125.32 132.449 126.515 133.645 127.991 133.645C129.467 133.645 130.662 132.449 130.662 130.974V109.06H132.266V130.974C132.266 132.449 133.461 133.645 134.937 133.645C136.413 133.645 137.608 132.449 137.608 130.974V109.06V103.733V91.5347H139.211V104.457C139.211 105.933 140.406 107.128 141.882 107.128C143.358 107.128 144.553 105.933 144.553 104.457V90.0493C144.56 85.998 141.264 82.7021 137.213 82.7021Z" fill="#758AB8"/>
<path d="M161.033 80.6437C163.874 80.6437 166.177 78.3404 166.177 75.4991C166.177 72.6578 163.874 70.3545 161.033 70.3545C158.191 70.3545 155.888 72.6578 155.888 75.4991C155.888 78.3404 158.191 80.6437 161.033 80.6437Z" fill="#758AB8"/>
<path d="M166.777 82.7021H155.289C151.238 82.7021 147.942 85.998 147.942 90.0493V104.457C147.942 105.933 149.137 107.128 150.613 107.128C152.089 107.128 153.284 105.933 153.284 104.457V91.5347H154.887V103.717C154.887 103.724 154.884 103.73 154.884 103.733V130.974C154.884 132.449 156.08 133.645 157.555 133.645C159.031 133.645 160.227 132.449 160.227 130.974V109.06H161.83V130.974C161.83 132.449 163.025 133.645 164.501 133.645C165.977 133.645 167.172 132.449 167.172 130.974V109.06V103.733V91.5347H168.775V104.457C168.775 105.933 169.971 107.128 171.447 107.128C172.922 107.128 174.118 105.933 174.118 104.457V90.0493C174.124 85.998 170.828 82.7021 166.777 82.7021Z" fill="#758AB8"/>
</g>
<defs>
<clipPath id="clip0_293_405">
<rect width="204" height="204" fill="white"/>
</clipPath>
</defs>
</svg>
